<svg xmlns="http://www.w3.org/2000/svg" width="1600" height="2130" viewBox="0 0 1600 2130" role="img" aria-labelledby="title description">
  <title id="title">Consonants</title>
  <desc id="description">Twenty-four English consonants with example words.</desc>
  <rect width="1600" height="2130" fill="#fbf4e8"/>
  <rect width="1600" height="150" fill="#222628"/>
  <rect x="72" y="47" width="12" height="56" rx="6" fill="#ef573c"/>
  <text x="112" y="94" fill="#ffffff" font-family="DejaVu Sans, Arial, sans-serif" font-size="62" font-weight="700">Consonants</text>

  <g font-family="DejaVu Sans, Arial, sans-serif" text-anchor="middle">
    <g transform="translate(70 180)"><rect width="344" height="270" rx="34" fill="#dbe4e8" stroke="#313638" stroke-width="4"/><rect x="28" y="28" width="66" height="10" rx="5" fill="#ef573c"/><text x="172" y="132" fill="#222628" font-size="86" font-weight="700">f</text><text x="172" y="215" fill="#59666c" font-size="38" font-weight="600">first</text></g>
    <g transform="translate(442 180)"><rect width="344" height="270" rx="34" fill="#dbe4e8" stroke="#313638" stroke-width="4"/><rect x="28" y="28" width="66" height="10" rx="5" fill="#ef573c"/><text x="172" y="132" fill="#222628" font-size="86" font-weight="700">v</text><text x="172" y="215" fill="#59666c" font-size="38" font-weight="600">van</text></g>
    <g transform="translate(814 180)"><rect width="344" height="270" rx="34" fill="#dbe4e8" stroke="#313638" stroke-width="4"/><rect x="28" y="28" width="66" height="10" rx="5" fill="#ef573c"/><text x="172" y="132" fill="#222628" font-size="86" font-weight="700">θ</text><text x="172" y="215" fill="#59666c" font-size="38" font-weight="600">thick</text></g>
    <g transform="translate(1186 180)"><rect width="344" height="270" rx="34" fill="#dbe4e8" stroke="#313638" stroke-width="4"/><rect x="28" y="28" width="66" height="10" rx="5" fill="#ef573c"/><text x="172" y="132" fill="#222628" font-size="86" font-weight="700">ð</text><text x="172" y="215" fill="#59666c" font-size="38" font-weight="600">these</text></g>

    <g transform="translate(70 500)"><rect width="344" height="270" rx="34" fill="#dbe4e8" stroke="#313638" stroke-width="4"/><rect x="28" y="28" width="66" height="10" rx="5" fill="#ef573c"/><text x="172" y="132" fill="#222628" font-size="86" font-weight="700">s</text><text x="172" y="215" fill="#59666c" font-size="38" font-weight="600">saw</text></g>
    <g transform="translate(442 500)"><rect width="344" height="270" rx="34" fill="#dbe4e8" stroke="#313638" stroke-width="4"/><rect x="28" y="28" width="66" height="10" rx="5" fill="#ef573c"/><text x="172" y="132" fill="#222628" font-size="86" font-weight="700">z</text><text x="172" y="215" fill="#59666c" font-size="38" font-weight="600">zen</text></g>
    <g transform="translate(814 500)"><rect width="344" height="270" rx="34" fill="#dbe4e8" stroke="#313638" stroke-width="4"/><rect x="28" y="28" width="66" height="10" rx="5" fill="#ef573c"/><text x="172" y="132" fill="#222628" font-size="86" font-weight="700">ʃ</text><text x="172" y="215" fill="#59666c" font-size="38" font-weight="600">she</text></g>
    <g transform="translate(1186 500)"><rect width="344" height="270" rx="34" fill="#dbe4e8" stroke="#313638" stroke-width="4"/><rect x="28" y="28" width="66" height="10" rx="5" fill="#ef573c"/><text x="172" y="132" fill="#222628" font-size="86" font-weight="700">ʒ</text><text x="172" y="215" fill="#59666c" font-size="38" font-weight="600">casual</text></g>

    <g transform="translate(70 820)"><rect width="344" height="270" rx="34" fill="#dbe4e8" stroke="#313638" stroke-width="4"/><rect x="28" y="28" width="66" height="10" rx="5" fill="#ef573c"/><text x="172" y="132" fill="#222628" font-size="86" font-weight="700">h</text><text x="172" y="215" fill="#59666c" font-size="38" font-weight="600">hat</text></g>
    <g transform="translate(442 820)"><rect width="344" height="270" rx="34" fill="#dbe4e8" stroke="#313638" stroke-width="4"/><rect x="28" y="28" width="66" height="10" rx="5" fill="#ef573c"/><text x="172" y="132" fill="#222628" font-size="86" font-weight="700">p</text><text x="172" y="215" fill="#59666c" font-size="38" font-weight="600">pick</text></g>
    <g transform="translate(814 820)"><rect width="344" height="270" rx="34" fill="#dbe4e8" stroke="#313638" stroke-width="4"/><rect x="28" y="28" width="66" height="10" rx="5" fill="#ef573c"/><text x="172" y="132" fill="#222628" font-size="86" font-weight="700">b</text><text x="172" y="215" fill="#59666c" font-size="38" font-weight="600">bed</text></g>
    <g transform="translate(1186 820)"><rect width="344" height="270" rx="34" fill="#dbe4e8" stroke="#313638" stroke-width="4"/><rect x="28" y="28" width="66" height="10" rx="5" fill="#ef573c"/><text x="172" y="132" fill="#222628" font-size="86" font-weight="700">t</text><text x="172" y="215" fill="#59666c" font-size="38" font-weight="600">team</text></g>

    <g transform="translate(70 1140)"><rect width="344" height="270" rx="34" fill="#dbe4e8" stroke="#313638" stroke-width="4"/><rect x="28" y="28" width="66" height="10" rx="5" fill="#ef573c"/><text x="172" y="132" fill="#222628" font-size="86" font-weight="700">d</text><text x="172" y="215" fill="#59666c" font-size="38" font-weight="600">dine</text></g>
    <g transform="translate(442 1140)"><rect width="344" height="270" rx="34" fill="#dbe4e8" stroke="#313638" stroke-width="4"/><rect x="28" y="28" width="66" height="10" rx="5" fill="#ef573c"/><text x="172" y="132" fill="#222628" font-size="86" font-weight="700">k</text><text x="172" y="215" fill="#59666c" font-size="38" font-weight="600">code</text></g>
    <g transform="translate(814 1140)"><rect width="344" height="270" rx="34" fill="#dbe4e8" stroke="#313638" stroke-width="4"/><rect x="28" y="28" width="66" height="10" rx="5" fill="#ef573c"/><text x="172" y="132" fill="#222628" font-size="86" font-weight="700">g</text><text x="172" y="215" fill="#59666c" font-size="38" font-weight="600">get</text></g>
    <g transform="translate(1186 1140)"><rect width="344" height="270" rx="34" fill="#dbe4e8" stroke="#313638" stroke-width="4"/><rect x="28" y="28" width="66" height="10" rx="5" fill="#ef573c"/><text x="172" y="132" fill="#222628" font-size="80" font-weight="700">tʃ</text><text x="172" y="215" fill="#59666c" font-size="38" font-weight="600">choose</text></g>

    <g transform="translate(70 1460)"><rect width="344" height="270" rx="34" fill="#dbe4e8" stroke="#313638" stroke-width="4"/><rect x="28" y="28" width="66" height="10" rx="5" fill="#ef573c"/><text x="172" y="132" fill="#222628" font-size="80" font-weight="700">dʒ</text><text x="172" y="215" fill="#59666c" font-size="38" font-weight="600">jet</text></g>
    <g transform="translate(442 1460)"><rect width="344" height="270" rx="34" fill="#dbe4e8" stroke="#313638" stroke-width="4"/><rect x="28" y="28" width="66" height="10" rx="5" fill="#ef573c"/><text x="172" y="132" fill="#222628" font-size="86" font-weight="700">w</text><text x="172" y="215" fill="#59666c" font-size="38" font-weight="600">watch</text></g>
    <g transform="translate(814 1460)"><rect width="344" height="270" rx="34" fill="#dbe4e8" stroke="#313638" stroke-width="4"/><rect x="28" y="28" width="66" height="10" rx="5" fill="#ef573c"/><text x="172" y="132" fill="#222628" font-size="86" font-weight="700">r</text><text x="172" y="215" fill="#59666c" font-size="38" font-weight="600">rug</text></g>
    <g transform="translate(1186 1460)"><rect width="344" height="270" rx="34" fill="#dbe4e8" stroke="#313638" stroke-width="4"/><rect x="28" y="28" width="66" height="10" rx="5" fill="#ef573c"/><text x="172" y="132" fill="#222628" font-size="86" font-weight="700">j</text><text x="172" y="215" fill="#59666c" font-size="38" font-weight="600">yet</text></g>

    <g transform="translate(70 1780)"><rect width="344" height="270" rx="34" fill="#dbe4e8" stroke="#313638" stroke-width="4"/><rect x="28" y="28" width="66" height="10" rx="5" fill="#ef573c"/><text x="172" y="132" fill="#222628" font-size="86" font-weight="700">l</text><text x="172" y="215" fill="#59666c" font-size="38" font-weight="600">look</text></g>
    <g transform="translate(442 1780)"><rect width="344" height="270" rx="34" fill="#dbe4e8" stroke="#313638" stroke-width="4"/><rect x="28" y="28" width="66" height="10" rx="5" fill="#ef573c"/><text x="172" y="132" fill="#222628" font-size="86" font-weight="700">m</text><text x="172" y="215" fill="#59666c" font-size="38" font-weight="600">mode</text></g>
    <g transform="translate(814 1780)"><rect width="344" height="270" rx="34" fill="#dbe4e8" stroke="#313638" stroke-width="4"/><rect x="28" y="28" width="66" height="10" rx="5" fill="#ef573c"/><text x="172" y="132" fill="#222628" font-size="86" font-weight="700">n</text><text x="172" y="215" fill="#59666c" font-size="38" font-weight="600">neck</text></g>
    <g transform="translate(1186 1780)"><rect width="344" height="270" rx="34" fill="#dbe4e8" stroke="#313638" stroke-width="4"/><rect x="28" y="28" width="66" height="10" rx="5" fill="#ef573c"/><text x="172" y="132" fill="#222628" font-size="86" font-weight="700">ŋ</text><text x="172" y="215" fill="#59666c" font-size="38" font-weight="600">song</text></g>
  </g>
</svg>
